# xmcd
#
# Track frame offsets: 
#        150
#        10820
#        22933
#        33378
#        43113
#        53828
#        67883
#        78813
#        88640
#        99538
#
# Disc length: 1519 seconds
#
# Revision: 4
# Processed by: cddbd v1.5.2PL0 Copyright (c) Steve Scherf et al.
# Submitted via: ExactAudioCopy v0.99pb4
#
DISCID=6b05ed0a
DTITLE=Various Artist - Billboard Top R&B Hits - 1956
DYEAR=1989
DGENRE=R&B
TTITLE0=Fats Domino - Blueberry Hill
TTITLE1=Platters - The Great Pretender
TTITLE2=Frankie Lymon And The Teenagers - Why Do Fools Fall In Love
TTITLE3=Little Richard - Long Tall Sally
TTITLE4=Cadillacs - Speedo
TTITLE5=Five Satins - In The Still Of The Night
TTITLE6=Shirley And Lee - Let The Good Times Roll
TTITLE7=Clyde McPhatter - Treasure Of Love
TTITLE8=Little Richard - Tutti-Frutti
TTITLE9=Teen Queens - Eddie My Love
EXTD=
EXTT0=
EXTT1=
EXTT2=
EXTT3=
EXTT4=
EXTT5=
EXTT6=
EXTT7=
EXTT8=
EXTT9=
PLAYORDER=
